[h264 @ 0x55a74ea1d180] Reinit context to 1280x720, pix_fmt: yuv420p
Input #0, mov,mp4,m4a,3gp,3g2,mj2, from '/var/www/html/project/media/video/original/lv_0_20241216084634.mp4':
  Metadata:
    major_brand     : isom
    minor_version   : 512
    compatible_brands: isomiso2avc1mp41
    Hw              : 1
    LvMetaInfo      : {"data":{"adsTemplateId":"","appVersion":"13.3.0","businessComponentId":"","businessTemplateId":"","capabilityName":"","capability_extra":"","commercial_params":{"commercial_audio_music_cnt":0,"commercial_sticker_cnt":0,"commercial_text_font_cnt":0,"comme
    aigc_info       : {"aigc_label_type":0,"source_info":""}
    bitrate         : 10000000
    maxrate         : 30000000
    te_is_reencode  : 1
    encoder         : bytevehwavc
  Duration: 00:00:40.59, start: 0.000000, bitrate: 8136 kb/s
    Stream #0:0(und): Video: h264 (High), 1 reference frame (avc1 / 0x31637661), yuv420p(tv, bt709, left), 1280x720, 7920 kb/s, 30 fps, 30 tbr, 1000k tbn, 2000k tbc (default)
    Metadata:
      handler_name    : VideoHandler
    Stream #0:1(und): Audio: aac (LC) (mp4a / 0x6134706D), 44100 Hz, stereo, fltp, 220 kb/s (default)
    Metadata:
      handler_name    : SoundHandler
Input #1, png_pipe, from '/var/www/html/project/static/images/templates/logo.png':
  Duration: N/A, bitrate: N/A
    Stream #1:0: Video: png, 1 reference frame, rgba(pc), 1920x1080 [SAR 2835:2835 DAR 16:9], 25 tbr, 25 tbn, 25 tbc
[h264 @ 0x55a74ea7ee00] Reinit context to 1280x720, pix_fmt: yuv420p
Input #2, mov,mp4,m4a,3gp,3g2,mj2, from '/var/www/html/project/static/images/templates/Codino.mp4':
  Metadata:
    major_brand     : mp42
    minor_version   : 1
    compatible_brands: isommp41mp42
    creation_time   : 2021-07-11T07:02:58.000000Z
  Duration: 00:00:02.00, start: 0.000000, bitrate: 1007 kb/s
    Stream #2:0(ita): Audio: aac (LC) (mp4a / 0x6134706D), 44100 Hz, stereo, fltp, 102 kb/s (default)
    Metadata:
      creation_time   : 2021-07-11T07:02:58.000000Z
      handler_name    : Core Media Audio
    Stream #2:1(und): Video: h264 (High), 1 reference frame (avc1 / 0x31637661), yuv420p(tv, bt709, progressive, left), 1280x720 [SAR 1:1 DAR 16:9], 813 kb/s, 25 fps, 25 tbr, 25k tbn, 50k tbc (default)
    Metadata:
      creation_time   : 2021-07-11T07:02:58.000000Z
      handler_name    : Core Media Video
[Parsed_scale_0 @ 0x55a74ea6b3c0] w:1280 h:720 flags:'bilinear' interl:0
[Parsed_scale_2 @ 0x55a74ea46500] w:1280 h:720 flags:'bilinear' interl:0
[Parsed_scale_4 @ 0x55a74ea6c580] w:1280 h:720 flags:'bilinear' interl:0
Stream mapping:
  Stream #0:0 (h264) -> scale
  Stream #0:1 (aac) -> concat:in0:a0
  Stream #1:0 (png) -> scale
  Stream #2:0 (aac) -> concat:in1:a0
  Stream #2:1 (h264) -> scale
  concat:out:v0 -> Stream #0:0 (libx264)
  concat:out:a0 -> Stream #0:1 (aac)
Press [q] to stop, [?] for help
[h264 @ 0x55a74ea6ac00] Reinit context to 1280x720, pix_fmt: yuv420p
[h264 @ 0x55a74ee4d1c0] Reinit context to 1280x720, pix_fmt: yuv420p
[Parsed_scale_0 @ 0x55a74fce5fc0] w:1280 h:720 flags:'bilinear' interl:0
[Parsed_scale_2 @ 0x55a74fcee900] w:1280 h:720 flags:'bilinear' interl:0
[Parsed_scale_4 @ 0x55a74fcefbc0] w:1280 h:720 flags:'bilinear' interl:0
[graph 0 input from stream 0:0 @ 0x55a74fcf4300] w:1280 h:720 pixfmt:yuv420p tb:1/1000000 fr:30/1 sar:0/1 sws_param:flags=2
[graph 0 input from stream 1:0 @ 0x55a74fcf5380] w:1920 h:1080 pixfmt:rgba tb:1/25 fr:25/1 sar:2835/2835 sws_param:flags=2
[graph 0 input from stream 2:1 @ 0x55a74fcf6400] w:1280 h:720 pixfmt:yuv420p tb:1/25000 fr:25/1 sar:1/1 sws_param:flags=2
[graph_0_in_0_1 @ 0x55a74fcf7380] tb:1/44100 samplefmt:fltp samplerate:44100 chlayout:0x3
[graph_0_in_2_0 @ 0x55a74fcf84c0] tb:1/44100 samplefmt:fltp samplerate:44100 chlayout:0x3
[Parsed_scale_0 @ 0x55a74fce5fc0] w:1280 h:720 fmt:yuv420p sar:0/1 -> w:1280 h:720 fmt:yuv420p sar:0/1 flags:0x2
[Parsed_setsar_1 @ 0x55a74fcedf00] w:1280 h:720 sar:0/1 dar:16/9 -> sar:1/1 dar:16/9
[Parsed_scale_2 @ 0x55a74fcee900] w:1920 h:1080 fmt:rgba sar:2835/2835 -> w:1280 h:720 fmt:yuva420p sar:1/1 flags:0x2
[Parsed_setsar_3 @ 0x55a74fceee80] w:1280 h:720 sar:1/1 dar:16/9 -> sar:1/1 dar:16/9
[Parsed_overlay_6 @ 0x55a74fcf1240] main w:1280 h:720 fmt:yuv420p overlay w:1280 h:720 fmt:yuva420p
[Parsed_overlay_6 @ 0x55a74fcf1240] [framesync @ 0x55a74fcf1368] Selected 1/1000000 time base
[Parsed_overlay_6 @ 0x55a74fcf1240] [framesync @ 0x55a74fcf1368] Sync level 2
[Parsed_scale_4 @ 0x55a74fcefbc0] w:1280 h:720 fmt:yuv420p sar:1/1 -> w:1280 h:720 fmt:yuv420p sar:1/1 flags:0x2
[Parsed_setsar_5 @ 0x55a74fcf0680] w:1280 h:720 sar:1/1 dar:16/9 -> sar:1/1 dar:16/9
[libx264 @ 0x55a74ea71b80] using SAR=1/1
[libx264 @ 0x55a74ea71b80] using cpu capabilities: MMX2 SSE2Fast SSSE3 SSE4.2 AVX FMA3 BMI2 AVX2
[libx264 @ 0x55a74ea71b80] profile High, level 3.1
[libx264 @ 0x55a74ea71b80] 264 - core 155 r2917 0a84d98 - H.264/MPEG-4 AVC codec - Copyleft 2003-2018 - http://www.videolan.org/x264.html - options: cabac=1 ref=1 deblock=1:0:0 analyse=0x3:0x113 me=hex subme=2 psy=1 psy_rd=1.00:0.00 mixed_ref=0 me_range=16 chroma_me=1 trellis=0 8x8dct=1 cqm=0 deadzone=21,11 fast_pskip=1 chroma_qp_offset=0 threads=22 lookahead_threads=5 sliced_threads=0 nr=0 decimate=1 interlaced=0 bluray_compat=0 constrained_intra=0 bframes=3 b_pyramid=2 b_adapt=1 b_bias=0 direct=1 weightb=1 open_gop=0 weightp=1 keyint=250 keyint_min=25 scenecut=40 intra_refresh=0 rc_lookahead=10 rc=crf mbtree=1 crf=18.0 qcomp=0.60 qpmin=0 qpmax=69 qpstep=4 ip_ratio=1.40 aq=1:1.00
Output #0, mp4, to '/var/www/html/project/media/video/watermarks/lv_0_20241216084634.mp4':
  Metadata:
    major_brand     : isom
    minor_version   : 512
    compatible_brands: isomiso2avc1mp41
    Hw              : 1
    LvMetaInfo      : {"data":{"adsTemplateId":"","appVersion":"13.3.0","businessComponentId":"","businessTemplateId":"","capabilityName":"","capability_extra":"","commercial_params":{"commercial_audio_music_cnt":0,"commercial_sticker_cnt":0,"commercial_text_font_cnt":0,"comme
    aigc_info       : {"aigc_label_type":0,"source_info":""}
    bitrate         : 10000000
    maxrate         : 30000000
    te_is_reencode  : 1
    encoder         : Lavf58.29.100
    Stream #0:0: Video: h264 (libx264), 1 reference frame (avc1 / 0x31637661), yuv420p(progressive), 1280x720 [SAR 1:1 DAR 16:9], q=-1--1, 30 fps, 15360 tbn, 30 tbc (default)
    Metadata:
      encoder         : Lavc58.54.100 libx264
    Side data:
      cpb: bitrate max/min/avg: 0/0/0 buffer size: 0 vbv_delay: -1
    Stream #0:1: Audio: aac (LC) (mp4a / 0x6134706D), 44100 Hz, stereo, fltp, delay 1024, 128 kb/s (default)
    Metadata:
      encoder         : Lavc58.54.100 aac
[Parsed_overlay_6 @ 0x55a74fcf1240] [framesync @ 0x55a74fcf1368] Sync level 0
[Parsed_concat_7 @ 0x55a74fcf2380] EOF on in0:v0, 1 streams left in segment.
[Parsed_concat_7 @ 0x55a74fcf2380] EOF on in0:a0, 0 streams left in segment.
[Parsed_concat_7 @ 0x55a74fcf2380] Segment finished at pts=40542109
[Parsed_concat_7 @ 0x55a74fcf2380] EOF on in1:a0, 1 streams left in segment.
[Parsed_concat_7 @ 0x55a74fcf2380] EOF on in1:v0, 0 streams left in segment.
[Parsed_concat_7 @ 0x55a74fcf2380] Segment finished at pts=42560794
No more output streams to write to, finishing.
frame= 1266 fps= 79 q=-1.0 Lsize=   32321kB time=00:00:42.56 bitrate=6220.9kbits/s speed=2.65x    
[AVIOContext @ 0x55a74ea1b440] Statistics: 0 seeks, 32 writeouts
video:31616kB audio:663kB subtitle:0kB other streams:0kB global headers:0kB muxing overhead: 0.129137%
Input file #0 (/var/www/html/project/media/video/original/lv_0_20241216084634.mp4):
  Input stream #0:0 (video): 1216 packets read (40129800 bytes); 1216 frames decoded; 
  Input stream #0:1 (audio): 1748 packets read (1118409 bytes); 1746 frames decoded (1787904 samples); 
  Total: 2964 packets (41248209 bytes) demuxed
Input file #1 (/var/www/html/project/static/images/templates/logo.png):
  Input stream #1:0 (video): 1 packets read (111578 bytes); 1 frames decoded; 
  Total: 1 packets (111578 bytes) demuxed
Input file #2 (/var/www/html/project/static/images/templates/Codino.mp4):
  Input stream #2:0 (audio): 89 packets read (26579 bytes); 87 frames decoded (89024 samples); 
  Input stream #2:1 (video): 50 packets read (203365 bytes); 50 frames decoded; 
  Total: 139 packets (229944 bytes) demuxed
Output file #0 (/var/www/html/project/media/video/watermarks/lv_0_20241216084634.mp4):
  Output stream #0:0 (video): 1266 frames encoded; 1266 packets muxed (32375026 bytes); 
  Output stream #0:1 (audio): 1833 frames encoded (1876928 samples); 1834 packets muxed (678982 bytes); 
  Total: 3100 packets (33054008 bytes) muxed
[AVIOContext @ 0x55a74ea469c0] Statistics: 2 seeks, 130 writeouts
[libx264 @ 0x55a74ea71b80] frame I:6     Avg QP:17.17  size: 93844
[libx264 @ 0x55a74ea71b80] frame P:842   Avg QP:19.92  size: 30598
[libx264 @ 0x55a74ea71b80] frame B:418   Avg QP:22.24  size: 14469
[libx264 @ 0x55a74ea71b80] consecutive B-frames: 51.7%  8.7% 12.1% 27.5%
[libx264 @ 0x55a74ea71b80] mb I  I16..4:  9.5% 32.2% 58.2%
[libx264 @ 0x55a74ea71b80] mb P  I16..4:  4.5% 15.4%  3.0%  P16..4: 38.5% 15.8% 12.3%  0.0%  0.0%    skip:10.5%
[libx264 @ 0x55a74ea71b80] mb B  I16..4:  2.0%  4.4%  0.4%  B16..8: 32.5% 13.3%  2.6%  direct:14.3%  skip:30.5%  L0:46.4% L1:29.8% BI:23.8%
[libx264 @ 0x55a74ea71b80] 8x8 transform intra:65.9% inter:61.1%
[libx264 @ 0x55a74ea71b80] coded y,uvDC,uvAC intra: 65.7% 74.9% 26.3% inter: 29.6% 26.1% 2.0%
[libx264 @ 0x55a74ea71b80] i16 v,h,dc,p: 33% 27% 30%  9%
[libx264 @ 0x55a74ea71b80] i8 v,h,dc,ddl,ddr,vr,hd,vl,hu: 25% 31% 20%  3%  4%  4%  6%  4%  5%
[libx264 @ 0x55a74ea71b80] i4 v,h,dc,ddl,ddr,vr,hd,vl,hu: 25% 30% 13%  4%  6%  5%  7%  4%  5%
[libx264 @ 0x55a74ea71b80] i8c dc,h,v,p: 46% 28% 20%  6%
[libx264 @ 0x55a74ea71b80] Weighted P-Frames: Y:1.9% UV:0.5%
[libx264 @ 0x55a74ea71b80] kb/s:6089.22
[aac @ 0x55a74eae9900] Qavg: 1389.937
[AVIOContext @ 0x55a74ea243c0] Statistics: 70523400 bytes read, 1699 seeks
[AVIOContext @ 0x55a74ea23900] Statistics: 111578 bytes read, 0 seeks
[AVIOContext @ 0x55a74ea2e840] Statistics: 1530915 bytes read, 42 seeks
